<?xml version="1.0" encoding="utf-8"?>
<!-- Generator: Adobe Illustrator 24.1.0, SVG Export Plug-In . SVG Version: 6.00 Build 0)  -->
<svg version="1.1" id="Layer_1" xmlns="http://www.w3.org/2000/svg" xmlns:xlink="http://www.w3.org/1999/xlink" x="0px" y="0px"
	 viewBox="0 0 1280 149" style="enable-background:new 0 0 1280 149;" xml:space="preserve">
<style type="text/css">
	.st0{fill:#FFFFFF;}
</style>
<path class="st0" d="M913.2,74.9c13.1,1,21,7.2,22.5,13.1h0.5V74.9V61.9h-0.5C934.2,67.8,926.3,73.9,913.2,74.9 M328.5,84.4
	C328.5,84.4,328.5,84.4,328.5,84.4C328.6,84.4,328.7,84.3,328.5,84.4 M96.6,51.5c0-20.5-14.8-31.4-42-31.4h-8.7H18.3v0.5
	c7,0,9.8,3.8,9.8,13.6V108c0,13.3-3,17.9-9.8,17.9v0.7h38.5v-0.7c-6.6,0-10.3-4.9-10.3-15.8V20.7l1.1,0c18,0,31.2,7.6,31.3,31.7
	c0.1,20.4-8.5,31.7-23,31.7c2.7,0,3.1,0,4.6,0C78.6,84.1,96.6,73.6,96.6,51.5 M139.3,90H118l0,0l-13.1,26.2c-2.3,4.6-9,9.2-16,10.3
	v0.6h33.7v-0.6c-8,0-10.3-4.2-9.2-8.3l7-24.3L139.3,90z M158.3,126.9h42.3v-0.6c-7-1-11.4-6.7-13.9-12.2l-39-93.5h-4.1l-11.1,26.5
	l0.6,0.1c4.7-3.1,6.9,3,9.3,8.9c1.3,3.4,8.4,20.2,14.7,35.3c4.6,11.2,9.5,22.9,9.5,22.9c2.5,5.8-0.1,11-8.1,12V126.9z M308.2,127.5
	c-13.5,0.1-16.1-11.2-17.8-24.4c-1.5-11.9-8.9-20.3-25.9-20.5c15.8-2.7,29.1-12.6,29.1-31.1c0-20.5-16-31.4-45.6-31.4h-9.4h-26.1
	v0.5c7,0,9.8,3.8,9.8,13.6V108c0,13.3-3,17.9-9.8,17.9v0.7H251v-0.7c-6.6,0-10.3-4.9-10.3-15.8V20.8c19.4,0.1,34.5,7.4,34.6,31.4
	c0.1,20.4-9.7,31-25.3,31.1c2.5,0,3.2,0.2,4.3,0.2c15.6,0.8,17.8,12.5,19.2,25C275.3,123.2,288,133.5,308.2,127.5 M377.2,125.8
	c-4.4,0-7.5-2.2-9.1-6.9c-0.8-2.7-1.2-6.3-1.2-10.9l0-88.1h-17l-5.9,0c-10.9,0-31.4,0-31.4,0v25h0.8c0.7-4.3,1.2-7.1,4.7-11.7
	c6-7.8,17.8-11.8,30.3-12.3c0,0,0,0,0,0l0,13.2v74c0,4.7-0.4,8.2-1.2,10.9c-1.6,4.7-4.7,6.9-9.1,6.9v0.7h0.4h38h0.5V125.8z
	 M401.6,44.8h0.6v-25c0,0-16.2,0-24.8,0l-4.6,0c10.9,1.9,20,4.8,25.1,13.2C400.6,37.7,401,40.5,401.6,44.8 M486.5,125.8
	c-4.4,0-7.5-2.2-9.1-6.9c-0.8-2.7-1.2-6.3-1.2-10.9V79.8h0c-3.5-5.4-17-31.8-26.3-47.4c-2.8-5.4-2.4-9.4,2-11
	c1.1-0.3,2.4-0.4,3.8-0.5v-0.6h-39.9v0.6c6,0.5,10.1,4.2,15.2,11.6c10.1,17.5,25.3,47.6,26.7,50V108c0,4.7-0.4,8.2-1.2,10.9
	c-1.6,4.7-4.7,6.9-9.1,6.9v0.7h0.5h38h0.5V125.8z M519.4,20.8v-0.6h-33.7v0.6c8,0,9.6,3.2,9.4,7.7c-0.3,6.9-10.4,35.7-10.4,35.7
	s9.6-19.1,18.7-33.2C506.4,26.3,512.4,21.9,519.4,20.8 M655.1,51.5c0-20.5-14.8-31.4-42.1-31.4h-8.7h-27.6v0.5c7,0,9.8,3.8,9.8,13.6
	V108c0,13.3-3,17.9-9.8,17.9v0.7h38.5v-0.7c-6.6,0-10.3-4.9-10.3-15.8V20.7l1.1,0c18,0,31.2,7.6,31.3,31.7
	c0.1,20.4-8.5,31.7-23,31.7c2.7,0,3.1,0,4.6,0C637.1,84.1,655.1,73.6,655.1,51.5 M742.6,45l0.6,0v-25l-45.1,0v0h-25.8v0.5
	c7,0,9.8,3.8,9.8,13.6V108c0,13.3-3,17.9-9.8,17.9v0.7h28.3l-0.3-105.8c3.9,0,11.5,0.2,18,1C732.2,23.5,741,34.4,742.6,45
	 M705.3,74.9c13.1,1,21,7.2,22.5,13.1h0.5V74.9V61.9h-0.5C726.3,67.8,718.4,73.9,705.3,74.9 M718.4,126.5c8.6,0,24.8,0,24.8,0v-25
	h-0.6c-1.8,11.3-11.5,23-27.6,25L718.4,126.5z M864.6,127.5c-13.5,0.1-16.1-11.2-17.8-24.4c-1.5-11.9-8.9-20.3-25.9-20.5
	C836.7,79.9,850,70,850,51.6c0-20.5-16-31.4-45.6-31.4H795H769v0.5c7,0,9.8,3.8,9.8,13.6V108c0,13.3-3,17.9-9.8,17.9v0.7h38.5v-0.7
	c-6.6,0-10.3-4.9-10.3-15.8V20.8c19.4,0.1,34.5,7.4,34.6,31.4c0.1,20.4-9.7,31-25.3,31.1c2.5,0,3.2,0.2,4.3,0.2
	c15.6,0.8,17.8,12.5,19.2,25C831.7,123.2,844.4,133.5,864.6,127.5 M950.5,45l0.6,0v-25l-45.1,0v0h-25.8v0.5c7,0,9.8,3.8,9.8,13.6
	V108c0,4.7-0.4,8.4-1.2,11.1c-1.6,4.6-4.6,6.8-9,6.8v0.7h0.5h38h0.5v-0.7c-4.4,0-7.5-2.2-9.1-6.9c-0.7-2.5-1.1-5.8-1.1-10.1l0-3.8
	l0-84.4c3.9,0,11.4,0.2,17.8,1C940.1,23.5,948.9,34.4,950.5,45 M1043.3,45l0.6,0v-25l-45.1,0v0H973v0.5c7,0,9.8,3.8,9.8,13.6V108
	c0,13.3-3,17.9-9.8,17.9v0.7h28.3L1001,20.7c3.9,0,11.5,0.2,18,1C1032.8,23.5,1041.7,34.4,1043.3,45 M1005.9,74.9
	c13.1,1,21,7.2,22.5,13.1h0.5V74.9V61.9h-0.5C1027,67.8,1019.1,73.9,1005.9,74.9 M1019.1,126.5c8.6,0,24.8,0,24.8,0v-25h-0.6
	c-1.8,11.3-11.5,23-27.6,25L1019.1,126.5z M1090.1,72.9c0-37.1,13.9-53.6,31.9-53.6c18.4,0,29.4,17.3,32.5,30.2h1.5l-1.5-22.5
	c-6.1-3.8-17.2-9.2-32.5-9.2c-31.4,0-55.3,23-55.3,55.1c0,32.2,23.9,55.1,55.3,55.1c15.3,0,26.3-5.4,32.5-9.2l1.8-22.5h-1.5
	c-3.1,12.3-13.2,30.2-32.8,30.2C1104,126.5,1090.1,110.9,1090.1,72.9 M1237,125.8c-4.4,0-7.5-2.2-9.1-6.9c-0.8-2.7-1.2-6.3-1.2-10.9
	l0-88.1h-54.3v25h0.8c0.7-4.3,1.2-7.1,4.7-11.7c6-7.8,17.8-11.8,30.3-12.3c0,0,0,0,0,0l0,13.2v74c0,4.7-0.4,8.2-1.2,10.9
	c-1.6,4.7-4.7,6.9-9.1,6.9v0.7h0.4h38h0.5V125.8z M1262,44.8v-25c0,0-16.2,0-24.8,0l-4.6,0c10.9,1.9,20,4.8,25.1,13.2
	c2.8,4.6,3.2,7.5,3.7,11.7H1262z"/>
</svg>
