<?xml version="1.0" encoding="utf-8"?>
<!-- Generator: Adobe Illustrator 16.0.0, SVG Export Plug-In . SVG Version: 6.00 Build 0)  -->
<!DOCTYPE svg PUBLIC "-//W3C//DTD SVG 1.1//EN" "http://www.w3.org/Graphics/SVG/1.1/DTD/svg11.dtd">
<svg version="1.1" id="Layer_1" xmlns="http://www.w3.org/2000/svg" xmlns:xlink="http://www.w3.org/1999/xlink" x="0px" y="0px"
	 width="60.856px" height="53.113px" viewBox="0 0 60.856 53.113" enable-background="new 0 0 60.856 53.113" xml:space="preserve">
<g>
	<defs>
		<path id="SVGID_1_" d="M26.651,18.46l3.345,3.625l3.485-3.625H26.651z M20.109,41.379c2.178,0.851,3.315,2.409,3.033,4.213
			c-0.215,1.38-1.326,2.805-3.033,2.886V41.379z M40.121,48.481c-1.726-0.064-2.848-1.501-3.064-2.89
			c-0.285-1.823,0.878-3.398,3.102-4.242v7.142C40.146,48.488,40.134,48.481,40.121,48.481 M20.109,28.103
			c0.097,0.039,0.202,0.063,0.313,0.063c2.472,0,4.694,1.8,5.168,4.188c0.567,2.86-1.482,5.569-5.481,7.287V28.103z M34.609,32.353
			c0.473-2.388,2.695-4.188,5.168-4.188c0.139,0,0.267-0.043,0.381-0.103V39.67C36.113,37.955,34.037,35.229,34.609,32.353
			 M24.802,45.852c0.271-1.734-0.34-3.889-2.641-5.332c3.856-2.083,5.736-5.173,5.077-8.494c-0.4-2.018-1.744-3.717-3.511-4.682
			h5.53c-0.005,0.033-0.02,0.061-0.02,0.095v21.789c0,0.032,0.015,0.061,0.02,0.093h-6.623
			C23.757,48.551,24.574,47.315,24.802,45.852 M30.918,49.228V27.438c0-0.034-0.015-0.062-0.021-0.095h5.573
			c-1.767,0.965-3.11,2.664-3.511,4.682c-0.659,3.321,1.221,6.411,5.076,8.494c-2.301,1.443-2.912,3.598-2.642,5.331
			c0.228,1.464,1.046,2.7,2.17,3.47H30.9C30.903,49.288,30.918,49.26,30.918,49.228 M19.921,15.991h20.311v8.034H19.921V15.991z
			 M7.649,12.701h7.098v36.735H7.649V12.701z M46.267,12.701h7.098v36.735h-7.098V12.701z M1.68,9.723h57.454v1.299H1.68V9.723z
			 M1.721,1.682h57.454v1.298H1.721V1.682z M0.041,0v4.659H2.5v3.383H0v4.659h4.644v36.736H1.363v3.676h58.089v-3.676h-3.28V12.701
			h4.643V8.042h-2.54V4.659h2.581V0H0.041z"/>
	</defs>
	<clipPath id="SVGID_2_">
		<use xlink:href="#SVGID_1_"  overflow="visible"/>
	</clipPath>
	
		<linearGradient id="SVGID_3_" gradientUnits="userSpaceOnUse" x1="-476.3018" y1="2137.5234" x2="-475.3018" y2="2137.5234" gradientTransform="matrix(60.8563 0 0 -60.8563 28985.9355 130108.25)">
		<stop  offset="0" style="stop-color:#F0516C"/>
		<stop  offset="0.223" style="stop-color:#D75D7B"/>
		<stop  offset="0.709" style="stop-color:#9A70A0"/>
		<stop  offset="0.9915" style="stop-color:#6B78B9"/>
		<stop  offset="1" style="stop-color:#6B78B9"/>
	</linearGradient>
	<rect clip-path="url(#SVGID_2_)" fill="url(#SVGID_3_)" width="60.856" height="53.113"/>
</g>
<g>
</g>
<g>
</g>
<g>
</g>
<g>
</g>
<g>
</g>
<g>
</g>
</svg>
